<svg width="20" height="20" viewBox="0 0 20 20" fill="none" xmlns="http://www.w3.org/2000/svg">
<path d="M9.94215 12C8.94215 12 8 12.8 8 13.8C8 14.3 8.14214 14.7 8.44214 15C8.44214 15.1 8.44214 15.3732 8.44214 15.4732C8.44214 16.5879 9.12262 16.9892 9.92262 16.9892C10.7226 16.9892 11.4226 16.5972 11.4226 15.4732C11.4226 15.3732 11.4421 15.1 11.4421 15C11.7421 14.7 11.876 14.3 11.876 13.8C11.876 12.7404 10.9421 12 9.94215 12ZM10.4497 14.6L10.4301 15.4732C10.4301 15.7732 10.2226 15.9892 9.92262 15.9892C9.62262 15.9892 9.429 15.7732 9.429 15.4732L9.44853 14.6C9.14853 14.4 9.05556 14.2 9.05556 13.8C9.05556 13.3 9.44215 12.9744 9.94215 12.9744C10.4421 12.9744 10.8426 13.3 10.8426 13.8C10.8426 14.2001 10.7432 14.3936 10.4497 14.6ZM16 8V5.5C16 2.5 13 0 10 0C7 0 4 2.4 4 5.5V8C2.78434 8 2 9.00485 2 10.0048V18.2C2 19.2 2.8 20 3.8 20H16.1C17.1 20 17.9968 19.1555 17.9968 18.073V9.97788C18.0968 8.97788 17.1828 8 16 8ZM5 5.5C5 2.9 7.5 1 10 1C12.5 1 15 3 15 5.5V8H5V5.5ZM16.9968 18.073C16.9968 18.573 16.6 19 16.1 19H3.9C3.4 19 3 18.6 3 18.1V10.0048C3 9.50485 3.5 9 4 9H15.1H16C16.5 9 16.9968 9.47788 16.9968 9.97788V18.073Z" fill="#90A4AE"/>
</svg>
